<svg id="Calque_1" data-name="Calque 1" xmlns="http://www.w3.org/2000/svg" viewBox="0 0 93.88 93.18"><defs><style>.cls-1{fill:#fff;}</style></defs><title>logoXbox</title><path class="cls-1" d="M327.92,465.67s-5.35-10.7,24-49c0,0-13.76-14.91-20-12.31C331.89,404.37,303.23,432.5,327.92,465.67Z" transform="translate(-317.89 -391.13)"/><path class="cls-1" d="M364.63,404.68s16.33-8.79,24.36-6.5c0,0-20.1-15.59-48.23-.38C340.76,397.8,350.21,396.5,364.63,404.68Z" transform="translate(-317.89 -391.13)"/><path class="cls-1" d="M401.74,465.67s5.35-10.7-24-49c0,0,13.75-14.91,20-12.31C397.76,404.37,426.42,432.5,401.74,465.67Z" transform="translate(-317.89 -391.13)"/><path class="cls-1" d="M364.79,428.46s-33.28,27.12-31.9,41.64c0,0,.76,5.51,19,12.38,0,0,12.58,4.13,25.82,0,0,0,12.56-4,18.28-10.39C396,472.09,404.94,462.32,364.79,428.46Z" transform="translate(-317.89 -391.13)"/></svg>