<svg id="Calque_1" data-name="Calque 1" xmlns="http://www.w3.org/2000/svg" viewBox="0 0 357.16 254.98"><defs><style>.cls-1,.cls-2,.cls-3,.cls-4{fill:none;stroke-miterlimit:10;}.cls-1{stroke:#e52421;}.cls-2{stroke:#f3c213;}.cls-3{stroke:#0fab9f;}.cls-4{stroke:#256db5;}</style></defs><title>logoPlaystation</title><path class="cls-1" d="M273.73,475.61,330.13,493l1.32-202.35s1-4.76,8.2-5.79h4.81s7.86,1.54,8.78,6.93l.28,94.24s50.56,17.55,63.63-23c0,0,12.88-34-3-63.75,0,0-9.74-23.31-54.53-38.29l-85.91-21.61Z" transform="translate(-138.72 -238.73)"/><polyline class="cls-2" points="192.41 254.5 242.93 238.02 192.41 222.97"/><polyline class="cls-3" points="243.01 238.05 326.33 210.52 272.25 194.69 192.33 220.37 192.33 222.74"/><path class="cls-4" d="M465.1,449.2s21.47-6.27,27.44-16.19c0,0,8.88-9.86-4.76-21.44,0,0-7.8-8.08-35.43-13.07,0,0-22.53-3.67-41-3.78a210.51,210.51,0,0,0-45.41,5.5s-9.45,1.61-34.62,9.75l50.9,14.9,29.36-9.23s13.12-2.86,24.7-1.26c0,0,7.28,1.21,6.77,4,0,0,1.09,2.92-6.88,6.53l-24.77,8.49" transform="translate(-138.72 -238.73)"/><line class="cls-4" x1="134.78" y1="140.72" x2="112.61" y2="147.99"/><polyline class="cls-3" points="134.89 154.62 112.34 148.05 29.22 174.38 78.44 189.02 134.94 169.91"/><path class="cls-2" d="M167.79,413.09a61.31,61.31,0,0,0-17.35,8.59s-7.3,5.08-10.2,13.07a22.94,22.94,0,0,0-.85,9.14s.5,4,5.51,7.22c0,0,4.93,3.78,15.63,6.38,0,0,6.88,2.75,41.2,7.22a154.18,154.18,0,0,0,48.68.58s14.37-2.22,23.24-5.58" transform="translate(-138.72 -238.73)"/><path class="cls-2" d="M216.8,427.83,204.08,432s-7.63,2.46-7.11,6.65c0,0,.23,3.9,6,6.25a24.34,24.34,0,0,0,16.57.57l27.91-8.77,26.24,7.8" transform="translate(-138.72 -238.73)"/><line class="cls-3" x1="134.93" y1="189.68" x2="108.7" y2="198.01"/></svg>